<svg width="950" height="156" viewBox="0 0 950 156" fill="none" xmlns="http://www.w3.org/2000/svg">
<path d="M932.877 46.2639C928.87 46.2639 924.863 47.8983 920.856 51.1671C916.955 54.436 913.37 58.9174 910.101 64.6114C906.832 70.3055 904.196 76.7904 902.192 84.0661C900.294 91.3418 899.345 98.9866 899.345 107C899.345 112.378 900.347 116.28 902.35 118.705C904.459 121.025 907.148 122.185 910.417 122.185C914.213 122.185 918.115 121.025 922.121 118.705C926.128 116.385 930.135 112.273 934.142 106.368L937.306 107.633C935.302 111.113 932.666 114.487 929.397 117.756C926.128 121.025 922.438 123.714 918.325 125.822C914.319 127.826 910.048 128.828 905.514 128.828C899.187 128.828 894.126 126.877 890.33 122.975C886.534 119.074 884.636 113.274 884.636 105.577C884.636 100.726 885.321 95.5069 886.692 89.9183C888.168 84.2243 890.224 78.6357 892.86 73.1525C895.602 67.5639 898.923 62.5552 902.825 58.1265C906.726 53.5924 911.155 49.9545 916.111 47.2129C921.067 44.4714 926.497 43.1006 932.402 43.1006C937.042 43.1006 941.049 44.3132 944.423 46.7384C947.797 49.0582 949.485 52.3271 949.485 56.5449C949.485 58.5483 949.01 60.5518 948.061 62.5552C947.217 64.4533 945.952 66.0349 944.265 67.3003C942.578 68.5656 940.574 69.1983 938.255 69.1983C936.04 69.1983 934.406 68.6184 933.351 67.4585C932.297 66.1931 931.77 64.7169 931.77 63.0298C931.77 59.9718 932.982 57.3884 935.408 55.2795C937.833 53.0652 940.574 51.6944 943.632 51.1671C942.578 49.6909 941.207 48.531 939.52 47.6875C937.833 46.7384 935.618 46.2639 932.877 46.2639Z" fill="#4A4536"/>
<path d="M868.699 16.528C869.226 13.7864 870.597 11.4139 872.811 9.41046C875.131 7.407 877.609 6.40527 880.245 6.40527C882.987 6.40527 885.096 7.407 886.572 9.41046C888.154 11.4139 888.681 13.7864 888.154 16.528C887.626 19.2696 886.203 21.6421 883.883 23.6456C881.669 25.6491 879.191 26.6508 876.449 26.6508C873.813 26.6508 871.704 25.6491 870.122 23.6456C868.646 21.6421 868.172 19.2696 868.699 16.528ZM863.796 58.7589C866.01 52.2213 865.272 48.9525 861.581 48.9525C859.156 48.9525 856.995 50.2705 855.097 52.9067C853.199 55.5428 851.195 59.6025 849.086 65.0856L846.872 70.9378H843.867L847.979 59.3916C849.561 54.9629 851.459 51.5886 853.673 49.2688C855.887 46.949 858.207 45.3673 860.632 44.5238C863.163 43.5748 865.483 43.1003 867.592 43.1003C870.966 43.1003 873.444 43.7857 875.026 45.1564C876.607 46.5272 877.556 48.3198 877.873 50.5342C878.189 52.7485 878.084 55.1737 877.556 57.8099C877.029 60.3406 876.344 62.8185 875.5 65.2438L858.576 113.169C857.522 116.227 857.153 118.652 857.469 120.444C857.891 122.132 859.103 122.975 861.107 122.975C863.216 122.975 865.219 121.815 867.117 119.495C869.015 117.176 871.124 112.958 873.444 106.842L875.658 100.99H878.664L874.551 112.536C873.075 116.648 871.282 119.917 869.174 122.342C867.065 124.662 864.797 126.297 862.372 127.246C859.947 128.3 857.522 128.827 855.097 128.827C850.562 128.827 847.504 127.773 845.923 125.664C844.341 123.555 843.761 120.813 844.183 117.439C844.605 114.065 845.501 110.48 846.872 106.684L863.796 58.7589Z" fill="#4A4536"/>
<path d="M771.088 126.613H757.328L788.645 21.1151C789.699 17.53 789.541 14.8939 788.17 13.2067C786.905 11.5196 783.689 10.676 778.522 10.676L779.471 7.35452C785.271 7.24907 790.49 6.66912 795.13 5.61467C799.769 4.45477 804.04 2.87309 807.941 0.869629L771.088 126.613ZM775.517 103.204C779.524 92.1326 783.32 82.7479 786.905 75.0504C790.596 67.3529 794.234 61.1844 797.819 56.5448C801.404 51.7997 805.094 48.3728 808.89 46.2638C812.686 44.1549 816.641 43.1005 820.753 43.1005C825.709 43.1005 829.083 44.3131 830.876 46.7384C832.774 49.0582 833.617 52.0633 833.406 55.7539C833.196 59.4445 832.457 63.1878 831.192 66.9839L815.85 113.169C815.006 115.911 814.637 118.23 814.743 120.128C814.848 122.026 816.061 122.975 818.38 122.975C820.384 122.975 822.335 121.868 824.233 119.654C826.236 117.439 828.345 113.169 830.559 106.842L832.616 100.99H835.621L831.667 112.536C830.19 116.965 828.345 120.339 826.131 122.659C824.022 124.979 821.755 126.56 819.33 127.404C817.01 128.353 814.743 128.828 812.528 128.828C808.31 128.828 805.358 127.879 803.671 125.981C801.984 124.083 801.246 121.446 801.457 118.072C801.773 114.698 802.616 110.902 803.987 106.684L819.013 61.448C819.54 59.8663 820.015 58.021 820.437 55.9121C820.858 53.8032 820.753 52.0106 820.12 50.5344C819.593 48.9527 818.064 48.1619 815.534 48.1619C812.897 48.1619 810.05 49.3745 806.992 51.7997C804.04 54.1195 800.982 57.4938 797.819 61.9225C794.655 66.3512 791.545 71.6762 788.487 77.8975C785.429 84.1187 782.476 91.0781 779.629 98.7756C776.888 106.368 774.304 114.592 771.879 123.45L775.517 103.204Z" fill="#4A4536"/>
<path d="M736.484 48.162C733.742 48.162 730.632 50.1127 727.152 54.0142C723.778 57.8102 720.298 63.0298 716.713 69.6728C713.233 76.2104 709.912 83.5916 706.749 91.8163C703.691 100.041 701.107 108.582 698.998 117.44L701.845 100.357C706.379 86.5441 710.755 75.4723 714.973 67.1421C719.191 58.7065 723.409 52.5907 727.627 48.7946C731.95 44.9986 736.431 43.1006 741.071 43.1006C746.027 43.1006 749.981 44.9459 752.934 48.6365C755.992 52.3271 757.52 57.9157 757.52 65.4023C757.52 70.1473 756.835 75.3669 755.464 81.0609C754.199 86.755 752.248 92.3963 749.612 97.9849C747.081 103.573 743.918 108.74 740.122 113.485C736.431 118.125 732.161 121.868 727.31 124.715C722.46 127.457 717.082 128.828 711.177 128.828C708.014 128.828 705.167 127.879 702.636 125.981C700.211 124.083 698.576 121.341 697.733 117.756L698.998 114.593C700.475 118.494 702.162 121.236 704.06 122.817C706.063 124.399 708.383 125.19 711.019 125.19C714.604 125.19 718.031 123.819 721.3 121.077C724.569 118.23 727.574 114.487 730.316 109.847C733.057 105.208 735.43 100.094 737.433 94.5052C739.542 88.8111 741.124 83.1698 742.178 77.5812C743.338 71.8872 743.918 66.6676 743.918 61.9226C743.918 57.283 743.233 53.856 741.862 51.6417C740.596 49.3219 738.804 48.162 736.484 48.162ZM712.759 21.1152C715.29 21.0098 717.768 20.7989 720.193 20.4826C722.724 20.1662 725.043 19.639 727.152 18.9009L692.355 140.532C691.09 144.961 691.723 147.966 694.253 149.548C696.784 151.129 700.422 151.92 705.167 151.92L704.218 155.242C702.109 155.136 699.104 154.978 695.202 154.767C691.406 154.662 687.347 154.609 683.023 154.609C679.755 154.609 676.433 154.662 673.059 154.767C669.684 154.978 667.154 155.136 665.467 155.242L666.416 151.92C670.212 151.92 672.953 151.182 674.64 149.706C676.328 148.335 677.698 145.804 678.753 142.114L712.759 21.1152ZM679.86 70.1473C683.972 66.1404 687.821 62.1862 691.406 58.2847C694.991 54.2778 698.471 49.5328 701.845 44.0496C705.22 38.5664 708.647 31.6598 712.126 23.3296L712.601 25.8603C710.281 33.0306 707.487 39.3573 704.218 44.8404C701.054 50.2182 697.575 55.1214 693.779 59.5501C689.983 63.8733 685.923 68.0911 681.6 72.2035L679.86 70.1473Z" fill="#4A4536"/>
<path d="M619.212 123.766C621.743 123.766 624.643 122.185 627.912 119.021C631.18 115.752 634.502 111.376 637.876 105.893C641.25 100.41 644.361 94.1889 647.208 87.2295C650.055 80.2701 652.322 73.0471 654.009 65.5604L651.32 82.6426C647.314 93.8198 643.307 102.835 639.3 109.689C635.293 116.438 631.233 121.341 627.121 124.399C623.008 127.351 618.843 128.828 614.626 128.828C609.67 128.828 605.926 127.035 603.396 123.45C600.97 119.865 599.758 115.278 599.758 109.689C599.758 104.628 600.601 99.1448 602.288 93.2398C603.976 87.2295 606.295 81.2718 609.248 75.3669C612.306 69.4619 615.785 64.0842 619.687 59.2337C623.588 54.3832 627.806 50.4818 632.34 47.5293C636.98 44.5768 641.672 43.1006 646.417 43.1006C650.108 43.1006 652.902 44.9459 654.8 48.6365C656.804 52.2216 657.225 57.283 656.066 63.8206L654.326 64.7696C655.064 59.181 654.695 54.6996 653.219 51.3253C651.742 47.8456 649.317 46.1058 645.943 46.1058C643.201 46.1058 640.302 47.4766 637.244 50.2181C634.291 52.8543 631.391 56.4921 628.544 61.1317C625.803 65.6659 623.272 70.78 620.952 76.474C618.738 82.1681 616.945 88.073 615.575 94.1889C614.309 100.199 613.677 105.999 613.677 111.587C613.677 116.121 614.151 119.285 615.1 121.077C616.154 122.87 617.525 123.766 619.212 123.766ZM659.071 45.3149C661.601 45.2095 664.132 44.9986 666.663 44.6823C669.194 44.3659 671.513 43.8387 673.622 43.1006L653.851 113.011C653.64 113.96 653.324 115.225 652.902 116.807C652.586 118.283 652.586 119.654 652.902 120.919C653.324 122.185 654.431 122.817 656.224 122.817C658.333 122.817 660.389 121.657 662.392 119.338C664.396 117.018 666.399 112.8 668.403 106.684L670.301 100.832H673.306L669.352 112.378C667.875 116.596 666.083 119.918 663.974 122.343C661.97 124.663 659.862 126.297 657.647 127.246C655.433 128.3 653.271 128.828 651.162 128.828C647.05 128.828 644.15 127.457 642.463 124.715C641.092 122.29 640.723 119.496 641.356 116.332C641.989 113.064 642.727 109.795 643.57 106.526L659.071 45.3149Z" fill="#4A4536"/>
<path d="M557.962 126.613H544.201L563.181 58.7592C564.236 55.1741 564.552 52.6434 564.13 51.1671C563.814 49.6909 562.76 48.9528 560.967 48.9528C558.647 48.9528 556.538 50.1654 554.64 52.5907C552.742 55.0159 550.739 59.181 548.63 65.0859L546.574 70.9382H543.569L547.523 59.3919C549.104 54.9632 550.95 51.5889 553.059 49.2691C555.273 46.9493 557.54 45.3677 559.86 44.5241C562.285 43.5751 564.552 43.1006 566.661 43.1006C569.824 43.1006 572.039 43.786 573.304 45.1568C574.675 46.5276 575.413 48.3201 575.518 50.5345C575.729 52.7488 575.571 55.1741 575.044 57.8102C574.622 60.3409 574.095 62.8189 573.462 65.2441L557.962 126.613ZM598.611 47.0548C596.186 47.0548 593.655 48.2147 591.019 50.5345C588.488 52.7488 585.852 56.0176 583.111 60.3409C580.474 64.5587 577.786 69.6728 575.044 75.6832C572.408 81.5881 569.772 88.1785 567.136 95.4542C564.605 102.73 562.127 110.586 559.702 119.021L563.656 98.7757C567.136 88.4421 570.352 79.7428 573.304 72.678C576.362 65.6132 579.367 59.9191 582.32 55.5959C585.272 51.1671 588.277 48.0038 591.335 46.1058C594.499 44.1023 597.82 43.1006 601.3 43.1006C604.252 43.1006 606.519 43.9441 608.101 45.6313C609.788 47.3184 610.632 49.48 610.632 52.1162C610.632 54.2251 610.105 56.1758 609.05 57.9684C607.996 59.6555 606.625 61.0263 604.938 62.0807C603.356 63.0298 601.563 63.5043 599.56 63.5043C597.767 63.5043 596.238 63.0298 594.973 62.0807C593.813 61.0263 593.233 59.6028 593.233 57.8102C593.233 56.1231 593.55 54.6468 594.182 53.3815C594.815 52.0107 595.659 50.8508 596.713 49.9018C597.767 48.9528 598.98 48.2147 600.351 47.6875C600.14 47.4766 599.876 47.3184 599.56 47.2129C599.349 47.1075 599.033 47.0548 598.611 47.0548Z" fill="#4A4536"/>
<path d="M482.029 125.664C485.825 125.664 489.305 125.137 492.468 124.083C495.631 122.923 498.162 121.816 500.06 120.761C502.38 119.39 504.014 117.914 504.963 116.332C506.018 114.645 506.808 112.8 507.336 110.797L510.974 96.8777C512.133 92.5545 512.555 89.3384 512.239 87.2295C512.028 85.1206 510.868 83.6971 508.759 82.959C506.756 82.2208 503.54 81.7991 499.111 81.6936L499.902 78.5303C501.8 78.6357 504.014 78.7411 506.545 78.8466C509.076 78.8466 511.712 78.8993 514.453 79.0048C517.195 79.0048 519.726 79.0048 522.045 79.0048C525.525 79.0048 528.688 78.952 531.535 78.8466C534.382 78.7411 536.755 78.6357 538.653 78.5303L537.862 81.6936C535.542 81.7991 533.697 82.1681 532.326 82.8008C531.061 83.4335 529.954 84.6988 529.005 86.5968C528.161 88.4948 527.212 91.3946 526.158 95.2961L517.775 126.613H514.611C515.033 124.821 515.139 122.87 514.928 120.761C514.822 118.652 514.084 117.598 512.713 117.598C512.081 117.598 511.395 117.756 510.657 118.072C509.919 118.389 508.601 119.127 506.703 120.287C502.591 122.923 498.373 125.032 494.05 126.613C489.726 128.09 484.981 128.828 479.814 128.828C466.845 128.828 456.933 125.664 450.079 119.338C443.33 113.011 439.956 104.101 439.956 92.6072C439.956 85.4369 441.011 78.1085 443.119 70.6219C445.334 63.1352 448.444 55.9122 452.451 48.9528C456.458 41.9934 461.309 35.7722 467.003 30.289C472.697 24.8059 479.076 20.4826 486.141 17.3192C493.311 14.0504 501.009 12.416 509.234 12.416C516.088 12.416 521.36 13.4177 525.051 15.4212C528.847 17.4247 532.221 19.8499 535.173 22.6969C536.755 24.2786 538.231 24.5422 539.602 23.4878C540.973 22.4333 542.502 19.4809 544.189 14.6304H547.669C546.087 18.7427 544.452 23.7514 542.765 29.6563C541.078 35.4558 539.338 42.5734 537.546 51.009H534.066C534.277 48.9001 534.435 46.8966 534.541 44.9986C534.752 42.9952 534.857 41.0444 534.857 39.1464C534.857 36.9321 534.699 34.8759 534.382 32.9779C534.066 31.0799 533.486 29.2873 532.643 27.6001C530.428 23.6987 527.107 20.6935 522.678 18.5846C518.355 16.3702 513.557 15.263 508.285 15.263C501.22 15.263 494.84 17.1611 489.146 20.9571C483.558 24.6477 478.602 29.6036 474.279 35.8249C469.955 41.9407 466.317 48.6892 463.365 56.0704C460.518 63.3461 458.356 70.6746 456.88 78.0557C455.404 85.3315 454.666 91.9218 454.666 97.8268C454.666 107.317 456.88 114.329 461.309 118.863C465.843 123.397 472.75 125.664 482.029 125.664Z" fill="#4A4536"/>
<path d="M427.975 126.613H408.362V113.96H406.148C402.984 121.236 395.709 127.879 381.315 127.879C363.917 127.879 350.789 115.384 350.789 94.9798V48.1621H370.718V93.0818C370.718 103.995 377.045 110.48 388.433 110.48C401.245 110.48 408.046 102.572 408.046 88.6531V48.1621H427.975V126.613Z" fill="#4A4536"/>
<path d="M263.189 48.1618H282.801V60.8153H285.016C288.179 53.5395 295.455 46.8965 309.848 46.8965C327.247 46.8965 340.375 59.3918 340.375 79.7954V126.613H320.445V81.6935C320.445 70.7799 314.119 64.295 302.731 64.295C289.919 64.295 283.118 72.2034 283.118 86.1222V126.613H263.189V48.1618Z" fill="#4A4536"/>
<path d="M184.013 70.147C184.013 55.5955 195.876 45.9473 213.907 45.9473C232.254 45.9473 245.224 54.3302 254.24 63.8203L240.795 75.6829C231.78 65.2438 222.764 62.0804 214.856 62.0804C206.948 62.0804 203.31 65.2438 203.31 69.5143C203.31 73.7848 207.264 75.9992 214.698 77.2645L224.188 78.8462C241.27 81.6932 254.714 87.5455 254.714 103.046C254.714 118.546 240.795 128.827 221.499 128.827C201.253 128.827 186.386 118.546 178.477 106.051L194.136 96.4029C201.253 109.056 211.693 112.694 221.183 112.694C230.356 112.694 235.418 109.056 235.418 104.311C235.418 99.5662 231.305 97.3519 223.397 96.0865L213.907 94.5049C195.559 91.4997 184.013 84.6984 184.013 70.147Z" fill="#4A4536"/>
<path d="M173.139 126.613H153.526V113.96H151.312C148.149 121.236 140.873 127.879 126.48 127.879C109.081 127.879 95.9531 115.384 95.9531 94.9798V48.1621H115.882V93.0818C115.882 103.995 122.209 110.48 133.597 110.48C146.409 110.48 153.21 102.572 153.21 88.6531V48.1621H173.139V126.613Z" fill="#4A4536"/>
<path d="M0.173706 15.8955H21.0519V61.6061H62.8082V15.8955H83.6864V126.613H62.8082V80.5862H21.0519V126.613H0.173706V15.8955Z" fill="#4A4536"/>
</svg>
