<svg width="33" height="32" viewBox="0 0 33 32" fill="none" xmlns="http://www.w3.org/2000/svg">
<path fill-rule="evenodd" clip-rule="evenodd" d="M16.9151 24.7275C21.735 24.7275 25.6424 20.8201 25.6424 16.0002C25.6424 11.1803 21.735 7.27295 16.9151 7.27295C12.0952 7.27295 8.18784 11.1803 8.18784 16.0002C8.18784 20.8201 12.0952 24.7275 16.9151 24.7275ZM16.9151 21.8184C20.1283 21.8184 22.7333 19.2135 22.7333 16.0002C22.7333 12.7869 20.1283 10.182 16.9151 10.182C13.7018 10.182 11.0969 12.7869 11.0969 16.0002C11.0969 19.2135 13.7018 21.8184 16.9151 21.8184Z" fill="#BDBFBE"/>
<path d="M25.6424 5.81836C24.839 5.81836 24.1878 6.46959 24.1878 7.2729C24.1878 8.07622 24.839 8.72745 25.6424 8.72745C26.4457 8.72745 27.0969 8.07622 27.0969 7.2729C27.0969 6.46959 26.4457 5.81836 25.6424 5.81836Z" fill="#BDBFBE"/>
<path fill-rule="evenodd" clip-rule="evenodd" d="M1.86631 4.76518C0.9151 6.63204 0.9151 9.07591 0.9151 13.9636V18.0364C0.9151 22.9241 0.9151 25.368 1.86631 27.2348C2.70303 28.8769 4.03813 30.2121 5.68028 31.0487C7.54714 32 9.99101 32 14.8787 32H18.9515C23.8392 32 26.2831 32 28.1499 31.0487C29.792 30.2121 31.1272 28.8769 31.9638 27.2348C32.9151 25.368 32.9151 22.9241 32.9151 18.0364V13.9636C32.9151 9.07591 32.9151 6.63204 31.9638 4.76518C31.1272 3.12303 29.792 1.78793 28.1499 0.951215C26.2831 0 23.8392 0 18.9515 0H14.8787C9.99101 0 7.54714 0 5.68028 0.951215C4.03813 1.78793 2.70303 3.12303 1.86631 4.76518ZM18.9515 2.90909H14.8787C12.3869 2.90909 10.6929 2.91136 9.38358 3.01833C8.10818 3.12253 7.45596 3.3114 7.00098 3.54323C5.90621 4.10105 5.01615 4.99111 4.45833 6.08588C4.2265 6.54086 4.03763 7.19308 3.93343 8.46848C3.82646 9.77782 3.82419 11.4718 3.82419 13.9636V18.0364C3.82419 20.5283 3.82646 22.2221 3.93343 23.5315C4.03763 24.807 4.2265 25.4592 4.45833 25.9142C5.01615 27.0089 5.90621 27.8989 7.00098 28.4567C7.45596 28.6886 8.10818 28.8775 9.38358 28.9817C10.6929 29.0886 12.3869 29.0909 14.8787 29.0909H18.9515C21.4434 29.0909 23.1372 29.0886 24.4466 28.9817C25.7221 28.8775 26.3743 28.6886 26.8293 28.4567C27.924 27.8989 28.814 27.0089 29.3718 25.9142C29.6037 25.4592 29.7926 24.807 29.8968 23.5315C30.0037 22.2221 30.006 20.5283 30.006 18.0364V13.9636C30.006 11.4718 30.0037 9.77782 29.8968 8.46848C29.7926 7.19308 29.6037 6.54086 29.3718 6.08588C28.814 4.99111 27.924 4.10105 26.8293 3.54323C26.3743 3.3114 25.7221 3.12253 24.4466 3.01833C23.1372 2.91136 21.4434 2.90909 18.9515 2.90909Z" fill="#BDBFBE"/>
</svg>
