<svg width="33" height="32" viewBox="0 0 33 32" fill="none" xmlns="http://www.w3.org/2000/svg">
<path d="M30.3546 0.00286983H3.65705C3.31294 -0.0132487 2.96901 0.038647 2.64498 0.155616C2.32095 0.272586 2.02318 0.452308 1.76868 0.684487C1.5142 0.916686 1.308 1.1968 1.16192 1.50877C1.01583 1.82076 0.932696 2.15849 0.917297 2.50264V29.2602C0.937456 29.9804 1.23259 30.6657 1.74208 31.1751C2.25157 31.6846 2.93679 31.9798 3.65705 32H30.3546C31.0547 31.9688 31.7149 31.6644 32.1934 31.1523C32.672 30.6401 32.9308 29.961 32.9144 29.2602V2.50264C32.9202 2.16767 32.8574 1.83508 32.73 1.52523C32.6026 1.2154 32.4132 0.934844 32.1734 0.700766C31.9339 0.466707 31.6489 0.284085 31.3361 0.164076C31.0233 0.0440666 30.6894 -0.0107889 30.3546 0.00286983ZM10.9164 26.6805H6.25681V12.4218H10.9164V26.6805ZM8.69658 10.2619C8.37143 10.2733 8.04744 10.2172 7.74499 10.0974C7.44252 9.9775 7.1681 9.79637 6.93901 9.56538C6.70989 9.33438 6.531 9.0585 6.41361 8.75507C6.29621 8.45164 6.24283 8.12721 6.25681 7.80216C6.24243 7.47359 6.29688 7.14566 6.41669 6.83938C6.5365 6.53309 6.71901 6.25524 6.95248 6.02364C7.18598 5.79202 7.4653 5.61178 7.77253 5.49447C8.07978 5.37714 8.40815 5.32534 8.73658 5.34238C9.06173 5.33106 9.38572 5.38708 9.68818 5.50695C9.99065 5.62682 10.2651 5.80794 10.4942 6.03894C10.7233 6.26994 10.9022 6.54581 11.0196 6.84924C11.137 7.15268 11.1903 7.47711 11.1764 7.80216C11.1907 8.13073 11.1363 8.45866 11.0165 8.76493C10.8967 9.07122 10.7142 9.34908 10.4807 9.58067C10.2472 9.81229 9.96787 9.99254 9.66064 10.1098C9.35339 10.2272 9.02501 10.279 8.69658 10.2619ZM27.5949 26.6805H22.9153V18.8812C22.9153 17.0214 22.2553 15.7415 20.5955 15.7415C20.0799 15.7459 19.5782 15.9097 19.1594 16.2104C18.7405 16.5112 18.4249 16.9342 18.2557 17.4213C18.1257 17.7865 18.0713 18.1743 18.0957 18.5612V26.6805H13.4961V12.4218H18.0957V14.4216C18.5047 13.6703 19.1132 13.0467 19.8544 12.6196C20.5955 12.1926 21.4402 11.9788 22.2953 12.0018C25.3151 12.0018 27.5949 14.0016 27.5949 18.2613V26.6805Z" fill="#BDBFBE"/>
</svg>
