<svg width="47" height="48" viewBox="0 0 47 48" fill="none" xmlns="http://www.w3.org/2000/svg">
<g clip-path="url(#clip0_233_13)">
<mask id="mask0_233_13" style="mask-type:luminance" maskUnits="userSpaceOnUse" x="0" y="0" width="47" height="48">
<path d="M46.9173 0H0V48H46.9173V0Z" fill="white"/>
</mask>
<g mask="url(#mask0_233_13)">
<path d="M-0.0102539 47.9999V-0.00585938H8.61063V18.1677H9.84218C10.2071 17.4362 10.7772 16.7047 11.5527 15.9732C12.3281 15.2417 13.3544 14.6473 14.6315 14.1902C15.9543 13.6872 17.6192 13.4358 19.6262 13.4358C22.2717 13.4358 24.5752 14.053 26.5365 15.2874C28.5435 16.4761 30.0944 18.1449 31.1891 20.2937C32.2838 22.3968 32.8312 24.8657 32.8312 27.7003V47.9999H24.2103V28.3861C24.2103 25.8258 23.5717 23.9056 22.2945 22.6254C21.063 21.3453 19.2841 20.7052 16.9578 20.7052C14.3123 20.7052 12.2597 21.5967 10.8 23.3798C9.34044 25.1171 8.61063 27.5631 8.61063 30.7178V47.9999H-0.0102539Z" fill="#BDBFBE"/>
<path d="M34.8422 17.9992L36.2237 12.9011C36.2667 12.7423 36.3905 12.6182 36.5489 12.5751L41.6351 11.1905C42.0584 11.0752 42.0991 10.4893 41.6958 10.3164L29.2564 4.98263C28.8726 4.81807 28.4848 5.20682 28.6489 5.59149L33.9703 18.06C34.1428 18.4643 34.7272 18.4235 34.8422 17.9992Z" fill="#BDBFBE"/>
<path fill-rule="evenodd" clip-rule="evenodd" d="M23.6779 4.95578C23.6779 2.21878 25.8914 0 28.6221 0H41.9887C44.7193 0 46.9329 2.21878 46.9329 4.95578V18.3537C46.9329 21.0906 44.7193 23.3094 41.9887 23.3094H28.622C25.8914 23.3094 23.6779 21.0906 23.6779 18.3537V4.95578ZM28.6221 2.25601C27.1345 2.25601 25.9286 3.46474 25.9286 4.95578V18.3537C25.9286 19.8447 27.1345 21.0534 28.622 21.0534H41.9887C43.4762 21.0534 44.6821 19.8447 44.6821 18.3537V4.95578C44.6821 3.46474 43.4762 2.25601 41.9887 2.25601H28.6221Z" fill="#BDBFBE"/>
</g>
</g>
<defs>
<clipPath id="clip0_233_13">
<rect width="46.9173" height="48" fill="white"/>
</clipPath>
</defs>
</svg>
