<svg xmlns="http://www.w3.org/2000/svg" width="870" height="888" viewBox="0 0 870 888" fill="none">
<g clip-path="url(#clip0_75_8)">
<path d="M-0.189392 888V-0.106201H159.67V336.105H182.507C189.273 322.572 199.846 309.039 214.225 295.506C228.604 281.973 247.635 270.978 271.317 262.52C295.846 253.216 326.718 248.564 363.934 248.564C412.991 248.564 455.705 259.982 492.075 282.819C529.291 304.81 558.049 335.683 578.348 375.436C598.648 414.343 608.798 460.017 608.798 512.458V888H448.939V525.145C448.939 477.78 437.097 442.255 413.414 418.572C390.577 394.89 357.591 383.048 314.454 383.048C265.397 383.048 227.335 399.542 200.269 432.528C173.203 464.669 159.67 509.92 159.67 568.282V888H-0.189392Z" fill="#ffffff"/>
<path d="M646.09 332.986L671.707 238.672C672.505 235.734 674.8 233.439 677.738 232.641L772.052 207.025C779.902 204.893 780.656 194.054 773.178 190.855L542.51 92.1801C535.393 89.1358 528.202 96.3276 531.246 103.444L629.921 334.112C633.12 341.591 643.958 340.836 646.09 332.986Z" fill="#ffffff"/>
<path fill-rule="evenodd" clip-rule="evenodd" d="M439.066 91.6819C439.066 41.0474 480.113 0 530.748 0H778.608C829.243 0 870.29 41.0474 870.29 91.6819V339.543C870.29 390.177 829.243 431.224 778.608 431.224H530.747C480.113 431.224 439.066 390.177 439.066 339.543V91.6819ZM530.748 41.7361C503.163 41.7361 480.802 64.0976 480.802 91.6819V339.543C480.802 367.127 503.163 389.488 530.747 389.488H778.608C806.192 389.488 828.554 367.127 828.554 339.543V91.6819C828.554 64.0976 806.192 41.7361 778.608 41.7361H530.748Z" fill="#ffffff"/>
</g>
<defs>
<clipPath id="clip0_75_8">
<rect width="870" height="888" fill="white"/>
</clipPath>
</defs>
</svg>